<svg xmlns="http://www.w3.org/2000/svg" width="80" height="721" viewBox="0 0 80 721"><defs><style>.a,.b{fill:#ff0752;}.c{fill:#fff;font-size:49px;font-family:Montserrat-Bold, Montserrat;font-weight:700;}.d,.e{stroke:none;}.e{fill:#ff0752;}</style></defs><g transform="translate(-258 -1518)"><rect class="a" width="7" height="697" transform="translate(296 1542)"/><g transform="translate(258 1518)"><g class="b"><path class="d" d="M 40 78.5 C 34.66653442382812 78.5 29.49293327331543 77.46862030029297 24.62290000915527 75.43452453613281 C 19.91915512084961 73.46987915039062 15.69475555419922 70.65731048583984 12.06705570220947 67.07494354248047 C 8.439777374267578 63.49302291870117 5.592066764831543 59.32218933105469 3.603011131286621 54.67832183837891 C 1.544000029563904 49.87112045288086 0.5 44.76440048217773 0.5 39.5 C 0.5 34.23559951782227 1.544000029563904 29.12887763977051 3.603011131286621 24.32167816162109 C 5.592066764831543 19.67781066894531 8.439777374267578 15.50697803497314 12.06705570220947 11.92505550384521 C 15.69475555419922 8.34268856048584 19.91915512084961 5.53012228012085 24.62290000915527 3.565477848052979 C 29.49293327331543 1.531377792358398 34.66653442382812 0.5 40 0.5 C 45.33346557617188 0.5 50.50706481933594 1.531377792358398 55.37710189819336 3.565477848052979 C 60.08084487915039 5.53012228012085 64.30524444580078 8.34268856048584 67.93294525146484 11.92505550384521 C 71.56021881103516 15.50697803497314 74.40793609619141 19.67781066894531 76.39698791503906 24.32167816162109 C 78.45600128173828 29.12887763977051 79.5 34.23559951782227 79.5 39.5 C 79.5 44.76440048217773 78.45600128173828 49.87112045288086 76.39698791503906 54.67832183837891 C 74.40793609619141 59.32218933105469 71.56021881103516 63.49302291870117 67.93294525146484 67.07494354248047 C 64.30524444580078 70.65731048583984 60.08084487915039 73.46987915039062 55.37710189819336 75.43452453613281 C 50.50706481933594 77.46862030029297 45.33346557617188 78.5 40 78.5 Z"/><path class="e" d="M 40 1 C 34.7330436706543 1 29.6242790222168 2.018379211425781 24.81560134887695 4.02685546875 C 20.17128753662109 5.9666748046875 16.0002555847168 8.74371337890625 12.41838073730469 12.28082275390625 C 8.837364196777344 15.81706619262695 6.026092529296875 19.93443298339844 4.0626220703125 24.5185432434082 C 2.030426025390625 29.26316833496094 1 34.30365371704102 1 39.5 C 1 44.69634628295898 2.030426025390625 49.73683166503906 4.0626220703125 54.48145294189453 C 6.026092529296875 59.06556701660156 8.837364196777344 63.18293380737305 12.41838073730469 66.71917724609375 C 16.0002555847168 70.25628662109375 20.17128753662109 73.0333251953125 24.81560134887695 74.97314453125 C 29.6242790222168 76.98162078857422 34.7330436706543 78 40 78 C 45.2669563293457 78 50.37572479248047 76.98162078857422 55.18440246582031 74.97314453125 C 59.82871246337891 73.0333251953125 63.9997444152832 70.25628662109375 67.58161926269531 66.71917724609375 C 71.16263580322266 63.18293380737305 73.97390747070312 59.06556701660156 75.9373779296875 54.48145294189453 C 77.96957397460938 49.73683166503906 79 44.69634628295898 79 39.5 C 79 34.30365371704102 77.96957397460938 29.26316833496094 75.9373779296875 24.5185432434082 C 73.97390747070312 19.93443298339844 71.16263580322266 15.81706619262695 67.58161926269531 12.28082275390625 C 63.9997444152832 8.74371337890625 59.82871246337891 5.9666748046875 55.18440246582031 4.02685546875 C 50.37572479248047 2.018379211425781 45.2669563293457 1 40 1 M 40 0 C 62.09138870239258 0 80 17.68475723266602 80 39.5 C 80 61.31524658203125 62.09138870239258 79 40 79 C 17.90861129760742 79 0 61.31524658203125 0 39.5 C 0 17.68475723266602 17.90861129760742 0 40 0 Z"/></g><text class="c" transform="translate(40 57)"><tspan x="-9.604" y="0">1</tspan></text></g><g transform="translate(258 1839)"><g class="b"><path class="d" d="M 40 78.5 C 34.66653442382812 78.5 29.49293327331543 77.46862030029297 24.62290000915527 75.43452453613281 C 19.91915512084961 73.46987915039062 15.69475555419922 70.65731048583984 12.06705570220947 67.07494354248047 C 8.439777374267578 63.49302291870117 5.592066764831543 59.32218933105469 3.603011131286621 54.67832183837891 C 1.544000029563904 49.87112045288086 0.5 44.76440048217773 0.5 39.5 C 0.5 34.23559951782227 1.544000029563904 29.12887763977051 3.603011131286621 24.32167816162109 C 5.592066764831543 19.67781066894531 8.439777374267578 15.50697803497314 12.06705570220947 11.92505550384521 C 15.69475555419922 8.34268856048584 19.91915512084961 5.53012228012085 24.62290000915527 3.565477848052979 C 29.49293327331543 1.531377792358398 34.66653442382812 0.5 40 0.5 C 45.33346557617188 0.5 50.50706481933594 1.531377792358398 55.37710189819336 3.565477848052979 C 60.08084487915039 5.53012228012085 64.30524444580078 8.34268856048584 67.93294525146484 11.92505550384521 C 71.56021881103516 15.50697803497314 74.40793609619141 19.67781066894531 76.39698791503906 24.32167816162109 C 78.45600128173828 29.12887763977051 79.5 34.23559951782227 79.5 39.5 C 79.5 44.76440048217773 78.45600128173828 49.87112045288086 76.39698791503906 54.67832183837891 C 74.40793609619141 59.32218933105469 71.56021881103516 63.49302291870117 67.93294525146484 67.07494354248047 C 64.30524444580078 70.65731048583984 60.08084487915039 73.46987915039062 55.37710189819336 75.43452453613281 C 50.50706481933594 77.46862030029297 45.33346557617188 78.5 40 78.5 Z"/><path class="e" d="M 40 1 C 34.7330436706543 1 29.6242790222168 2.018379211425781 24.81560134887695 4.02685546875 C 20.17128753662109 5.9666748046875 16.0002555847168 8.74371337890625 12.41838073730469 12.28082275390625 C 8.837364196777344 15.81706619262695 6.026092529296875 19.93443298339844 4.0626220703125 24.5185432434082 C 2.030426025390625 29.26316833496094 1 34.30365371704102 1 39.5 C 1 44.69634628295898 2.030426025390625 49.73683166503906 4.0626220703125 54.48145294189453 C 6.026092529296875 59.06556701660156 8.837364196777344 63.18293380737305 12.41838073730469 66.71917724609375 C 16.0002555847168 70.25628662109375 20.17128753662109 73.0333251953125 24.81560134887695 74.97314453125 C 29.6242790222168 76.98162078857422 34.7330436706543 78 40 78 C 45.2669563293457 78 50.37572479248047 76.98162078857422 55.18440246582031 74.97314453125 C 59.82871246337891 73.0333251953125 63.9997444152832 70.25628662109375 67.58161926269531 66.71917724609375 C 71.16263580322266 63.18293380737305 73.97390747070312 59.06556701660156 75.9373779296875 54.48145294189453 C 77.96957397460938 49.73683166503906 79 44.69634628295898 79 39.5 C 79 34.30365371704102 77.96957397460938 29.26316833496094 75.9373779296875 24.5185432434082 C 73.97390747070312 19.93443298339844 71.16263580322266 15.81706619262695 67.58161926269531 12.28082275390625 C 63.9997444152832 8.74371337890625 59.82871246337891 5.9666748046875 55.18440246582031 4.02685546875 C 50.37572479248047 2.018379211425781 45.2669563293457 1 40 1 M 40 0 C 62.09138870239258 0 80 17.68475723266602 80 39.5 C 80 61.31524658203125 62.09138870239258 79 40 79 C 17.90861129760742 79 0 61.31524658203125 0 39.5 C 0 17.68475723266602 17.90861129760742 0 40 0 Z"/></g><text class="c" transform="translate(40 57)"><tspan x="-14.455" y="0">2</tspan></text></g><g transform="translate(258 2160)"><g class="b"><path class="d" d="M 40 78.5 C 34.66653442382812 78.5 29.49293327331543 77.46862030029297 24.62290000915527 75.43452453613281 C 19.91915512084961 73.46987915039062 15.69475555419922 70.65731048583984 12.06705570220947 67.07494354248047 C 8.439777374267578 63.49302291870117 5.592066764831543 59.32218933105469 3.603011131286621 54.67832183837891 C 1.544000029563904 49.87112045288086 0.5 44.76440048217773 0.5 39.5 C 0.5 34.23559951782227 1.544000029563904 29.12887763977051 3.603011131286621 24.32167816162109 C 5.592066764831543 19.67781066894531 8.439777374267578 15.50697803497314 12.06705570220947 11.92505550384521 C 15.69475555419922 8.34268856048584 19.91915512084961 5.53012228012085 24.62290000915527 3.565477848052979 C 29.49293327331543 1.531377792358398 34.66653442382812 0.5 40 0.5 C 45.33346557617188 0.5 50.50706481933594 1.531377792358398 55.37710189819336 3.565477848052979 C 60.08084487915039 5.53012228012085 64.30524444580078 8.34268856048584 67.93294525146484 11.92505550384521 C 71.56021881103516 15.50697803497314 74.40793609619141 19.67781066894531 76.39698791503906 24.32167816162109 C 78.45600128173828 29.12887763977051 79.5 34.23559951782227 79.5 39.5 C 79.5 44.76440048217773 78.45600128173828 49.87112045288086 76.39698791503906 54.67832183837891 C 74.40793609619141 59.32218933105469 71.56021881103516 63.49302291870117 67.93294525146484 67.07494354248047 C 64.30524444580078 70.65731048583984 60.08084487915039 73.46987915039062 55.37710189819336 75.43452453613281 C 50.50706481933594 77.46862030029297 45.33346557617188 78.5 40 78.5 Z"/><path class="e" d="M 40 1 C 34.7330436706543 1 29.6242790222168 2.018379211425781 24.81560134887695 4.02685546875 C 20.17128753662109 5.9666748046875 16.0002555847168 8.74371337890625 12.41838073730469 12.28082275390625 C 8.837364196777344 15.81706619262695 6.026092529296875 19.93443298339844 4.0626220703125 24.5185432434082 C 2.030426025390625 29.26316833496094 1 34.30365371704102 1 39.5 C 1 44.69634628295898 2.030426025390625 49.73683166503906 4.0626220703125 54.48145294189453 C 6.026092529296875 59.06556701660156 8.837364196777344 63.18293380737305 12.41838073730469 66.71917724609375 C 16.0002555847168 70.25628662109375 20.17128753662109 73.0333251953125 24.81560134887695 74.97314453125 C 29.6242790222168 76.98162078857422 34.7330436706543 78 40 78 C 45.2669563293457 78 50.37572479248047 76.98162078857422 55.18440246582031 74.97314453125 C 59.82871246337891 73.0333251953125 63.9997444152832 70.25628662109375 67.58161926269531 66.71917724609375 C 71.16263580322266 63.18293380737305 73.97390747070312 59.06556701660156 75.9373779296875 54.48145294189453 C 77.96957397460938 49.73683166503906 79 44.69634628295898 79 39.5 C 79 34.30365371704102 77.96957397460938 29.26316833496094 75.9373779296875 24.5185432434082 C 73.97390747070312 19.93443298339844 71.16263580322266 15.81706619262695 67.58161926269531 12.28082275390625 C 63.9997444152832 8.74371337890625 59.82871246337891 5.9666748046875 55.18440246582031 4.02685546875 C 50.37572479248047 2.018379211425781 45.2669563293457 1 40 1 M 40 0 C 62.09138870239258 0 80 17.68475723266602 80 39.5 C 80 61.31524658203125 62.09138870239258 79 40 79 C 17.90861129760742 79 0 61.31524658203125 0 39.5 C 0 17.68475723266602 17.90861129760742 0 40 0 Z"/></g><text class="c" transform="translate(40 57)"><tspan x="-14.504" y="0">3</tspan></text></g></g></svg>